# xmcd
#
# Track frame offsets: 
#        182
#        21202
#        35292
#        52902
#        64080
#        81472
#        96557
#        111895
#        125020
#        139362
#
# Disc length: 2036 seconds
#
# Revision: 0
# Processed by: cddbd v1.4PL0 Copyright (c) Steve Scherf et al.
# Submitted via: ExactAudioCopy v0.90b3
#
DISCID=8f07f20a
DTITLE=Ken Mellons - The Best Of Ken Mellons
DYEAR=1900
DGENRE=Country
TTITLE0=Jukebox Junkie (Dance Mix)
TTITLE1=Shame On Me
TTITLE2=Home Team
TTITLE3=Farmer's Daughter
TTITLE4=Ladies Night
TTITLE5=Can You Feel It
TTITLE6=Down To A Crawl
TTITLE7=Bundle Of Nerves
TTITLE8=Was It As Good For You
TTITLE9=Cool As You
EXTD=
EXTT0=
EXTT1=
EXTT2=
EXTT3=
EXTT4=
EXTT5=
EXTT6=
EXTT7=
EXTT8=
EXTT9=
PLAYORDER=
